<svg aria-hidden="true" xmlns="http://www.w3.org/2000/svg"><defs><symbol id="back" viewBox="0 0 219.151 219.151"><path d="M109.576 219.151c60.419 0 109.573-49.156 109.573-109.576C219.149 49.156 169.995 0 109.576 0S.002 49.156.002 109.575c0 60.42 49.155 109.576 109.574 109.576zm0-204.151c52.148 0 94.573 42.426 94.574 94.575 0 52.149-42.425 94.575-94.574 94.576-52.148-.001-94.573-42.427-94.573-94.577C15.003 57.427 57.428 15 109.576 15z"/><path d="M94.861 156.507a7.502 7.502 0 0 0 10.606 0 7.499 7.499 0 0 0-.001-10.608l-28.82-28.819 83.457-.008a7.5 7.5 0 0 0-.001-15l-83.46.008 28.827-28.825a7.5 7.5 0 0 0-10.607-10.608l-41.629 41.628a7.495 7.495 0 0 0-2.197 5.303 7.51 7.51 0 0 0 2.198 5.305l41.627 41.624z"/></symbol><symbol id="flush" viewBox="0 0 512 512"><path d="M170.8 14.221A14.21 14.21 0 0 1 185 .014L326.991.006a14.233 14.233 0 0 1 14.2 14.223v35.117H170.8zm233.461 477.443a21.75 21.75 0 0 1-21.856 20.33H127.954a21.968 21.968 0 0 1-21.854-20.416L84.326 173.06H427.5l-23.234 318.6zm56.568-347.452H51.171v-33A33.035 33.035 0 0 1 84.176 78.2l343.644-.011a33.051 33.051 0 0 1 33 33.02v33zm-270.79 291.851a14.422 14.422 0 1 0 28.844 0V233.816a14.42 14.42 0 0 0-28.839-.01v202.257zm102.9 0a14.424 14.424 0 1 0 28.848 0V233.816a14.422 14.422 0 0 0-28.843-.01z" fill="#fc0005" fill-rule="evenodd"/></symbol><symbol id="search" viewBox="0 0 461.516 461.516"><path d="M185.746 371.332a185.294 185.294 0 0 0 113.866-39.11L422.39 455c9.172 8.858 23.787 8.604 32.645-.568 8.641-8.947 8.641-23.131 0-32.077L332.257 299.577c62.899-80.968 48.252-197.595-32.716-260.494S101.947-9.169 39.048 71.799-9.204 269.394 71.764 332.293a185.64 185.64 0 0 0 113.982 39.039zM87.095 87.059c54.484-54.485 142.82-54.486 197.305-.002s54.486 142.82.002 197.305-142.82 54.486-197.305.002l-.002-.002c-54.484-54.087-54.805-142.101-.718-196.585l.718-.718z"/></symbol><symbol id="next" viewBox="0 0 512 512"><path d="M256 0C114.618 0 0 114.618 0 256s114.618 256 256 256 256-114.618 256-256S397.382 0 256 0zm0 469.333c-117.818 0-213.333-95.515-213.333-213.333S138.182 42.667 256 42.667 469.333 138.182 469.333 256 373.818 469.333 256 469.333z"/><path d="M228.418 134.248c-8.331-8.331-21.839-8.331-30.17 0-8.331 8.331-8.331 21.839 0 30.17L289.83 256l-91.582 91.582c-8.331 8.331-8.331 21.839 0 30.17 8.331 8.331 21.839 8.331 30.17 0l106.667-106.667c8.331-8.331 8.331-21.839 0-30.17L228.418 134.248z"/></symbol><symbol id="upload" viewBox="0 0 24 24"><path d="M22 13a1 1 0 0 0-1 1v4.213A2.79 2.79 0 0 1 18.213 21H5.787A2.79 2.79 0 0 1 3 18.213V14a1 1 0 0 0-2 0v4.213A4.792 4.792 0 0 0 5.787 23h12.426A4.792 4.792 0 0 0 23 18.213V14a1 1 0 0 0-1-1Z"/><path d="M6.707 8.707 11 4.414V17a1 1 0 0 0 2 0V4.414l4.293 4.293a1 1 0 0 0 1.414-1.414l-6-6a1 1 0 0 0-1.414 0l-6 6a1 1 0 0 0 1.414 1.414Z"/></symbol><symbol id="add" viewBox="0 0 512 512"><path d="M420.284 0H60C26.916 0 0 26.916 0 60v392c0 33.084 26.916 60 60 60h392c33.084 0 60-26.916 60-60V91.716zM157 40h119v76h40V40h40v96c0 11.028-8.972 20-20 20H177c-11.028 0-20-8.972-20-20zm239 432H117V296c0-11.028 8.972-20 20-20h239c11.028 0 20 8.972 20 20zm76-20c0 11.028-8.972 20-20 20h-16V296c0-33.084-26.916-60-60-60H137c-33.084 0-60 26.916-60 60v176H60c-11.028 0-20-8.972-20-20V60c0-11.028 8.972-20 20-20h57v96c0 33.084 26.916 60 60 60h159c33.084 0 60-26.916 60-60V40h7.716L472 108.284z"/></symbol><symbol id="ok" viewBox="0 -21 512.016 512"><path d="M234.668 469.34C105.281 469.34 0 364.063 0 234.676S105.281.008 234.668.008c44.992 0 88.766 12.82 126.59 37.097 7.426 4.782 9.601 14.68 4.82 22.125-4.797 7.446-14.676 9.598-22.121 4.82-32.64-20.972-70.441-32.042-109.289-32.042C122.922 32.008 32 122.93 32 234.676c0 111.742 90.922 202.664 202.668 202.664 111.742 0 202.664-90.922 202.664-202.664 0-6.68-.32-13.293-.937-19.797-.852-8.813 5.59-16.621 14.378-17.473 8.832-.812 16.618 5.59 17.473 14.38a239.63 239.63 0 0 1 1.086 22.89c0 129.387-105.277 234.664-234.664 234.664zm0 0"/><path d="M261.332 288.008c-4.094 0-8.191-1.559-11.305-4.692l-96-96c-6.25-6.253-6.25-16.386 0-22.636s16.383-6.25 22.633 0l84.695 84.695 223.336-223.34c6.254-6.25 16.387-6.25 22.637 0s6.25 16.383 0 22.633L272.66 283.336a16.03 16.03 0 0 1-11.328 4.672zm0 0"/><symbol id="close" viewBox="0 0 32 32"><path d="M21 12.46 17.41 16 21 19.54A1 1 0 0 1 21 21a1 1 0 0 1-.71.29 1 1 0 0 1-.7-.29L16 17.41 12.46 21a1 1 0 0 1-.7.29 1 1 0 0 1-.71-.29 1 1 0 0 1 0-1.41L14.59 16l-3.54-3.54a1 1 0 0 1 1.41-1.41L16 14.59l3.54-3.54A1 1 0 0 1 21 12.46zm4.9 13.44a14 14 0 1 1 0-19.8 14 14 0 0 1 0 19.8zM24.49 7.51a12 12 0 1 0 0 17 12 12 0 0 0 0-17z" id="Layer_22" data-name="Layer 22"/></symbol><symbol id="sort-ascending" viewBox="0 0 32 32"><path d="M17.6 14.6 16 16.2V0h-2v16.2l-1.5-1.6-1.4 1.5L15 20l4-3.9zM8.8 12.6c.3-.3.3-.7.1-1.1-.1-.3-.5-.5-.9-.5H1v2h4.8l-4.6 5.3c-.3.3-.3.7-.1 1.1s.5.6.9.6h7v-2H4.2zM5.9.6C5.8.2 5.4 0 5 0s-.7.2-.9.6l-3 7c-.2.5 0 1.1.5 1.3s1.1 0 1.3-.5L3.5 7h3l.6 1.4c.4.8 1.2.6 1.3.5.5-.2.7-.8.5-1.3zM4.4 5 5 3.5 5.6 5z"/></symbol><symbol id="sort-descending" viewBox="0 0 32 32"><path d="M17.6 14.6 16 16.2V0h-2v16.2l-1.5-1.6-1.4 1.5L15 20l4-3.9zM1.3 7.3c-.3.3-.3.8-.2 1.1.2.4.5.6.9.6h7V7H4.2l4.6-5.3c.2-.3.3-.8.1-1.1C8.8.2 8.4 0 8 0H1v2h4.8zM5.9 11.6c-.1-.4-.5-.6-.9-.6s-.8.2-.9.6l-3 7c-.2.5 0 1.1.5 1.3.1.1.9.3 1.3-.5l.6-1.4h3l.6 1.4c.2.5.8.7 1.3.5s.7-.8.5-1.3zM4.4 16l.6-1.5.6 1.5z"/></symbol></symbol></defs></svg>